<?xml version="1.0" encoding="UTF-8" standalone="no"?>
<svg
   xmlns:dc="http://purl.org/dc/elements/1.1/"
   xmlns:cc="http://creativecommons.org/ns#"
   xmlns:rdf="http://www.w3.org/1999/02/22-rdf-syntax-ns#"
   xmlns:svg="http://www.w3.org/2000/svg"
   xmlns="http://www.w3.org/2000/svg"
   xmlns:sodipodi="http://sodipodi.sourceforge.net/DTD/sodipodi-0.dtd"
   xmlns:inkscape="http://www.inkscape.org/namespaces/inkscape"
   version="1.0"
   width="81.599998pt"
   height="170.65955pt"
   viewBox="0 0 81.599998 170.65955"
   preserveAspectRatio="xMidYMid meet"
   id="svg2"
   inkscape:version="0.91 r13725"
   sodipodi:docname="totem.svg">
  <defs
     id="defs12" />
  <sodipodi:namedview
     pagecolor="#ffffff"
     bordercolor="#666666"
     borderopacity="1"
     objecttolerance="10"
     gridtolerance="10"
     guidetolerance="10"
     inkscape:pageopacity="0"
     inkscape:pageshadow="2"
     inkscape:window-width="1264"
     inkscape:window-height="922"
     id="namedview10"
     showgrid="false"
     fit-margin-top="0"
     fit-margin-left="0"
     fit-margin-right="0"
     fit-margin-bottom="0"
     inkscape:zoom="1.0553499"
     inkscape:cx="-68.655226"
     inkscape:cy="150.22969"
     inkscape:window-x="0"
     inkscape:window-y="0"
     inkscape:window-maximized="0"
     inkscape:current-layer="svg2" />
  <metadata
     id="metadata4">
Created by potrace 1.13, written by Peter Selinger 2001-2015
<rdf:RDF>
  <cc:Work
     rdf:about="">
    <dc:format>image/svg+xml</dc:format>
    <dc:type
       rdf:resource="http://purl.org/dc/dcmitype/StillImage" />
    <dc:title></dc:title>
  </cc:Work>
</rdf:RDF>
</metadata>
  <path
     style="fill:#ffffff;stroke:none;fill-opacity:1"
     inkscape:connector-curvature="0"
     id="path8"
     d="M 4.1,1.9 C 3.4,3.4 3.5,4.2 4.7,5.4 5.9,6.7 8.8,7 19.2,7 l 12.9,0 0,15 c 0,11.2 -0.3,15.2 -1.2,15.4 -0.7,0.3 -4.6,1.4 -8.5,2.5 C 11,43.2 5.9,49.7 7.5,58.5 c 0.4,1.9 1.8,4.8 3.2,6.5 l 2.6,3 -6.7,0 -6.6,0 0.3,2.7 0.3,2.8 14.5,0.5 14.5,0.5 0.3,14.7 0.3,14.8 -8,0 c -4.4,0 -8.6,0.3 -9.5,0.6 -1.4,0.5 -1.6,2.9 -1.6,16.4 l 0,15.8 -3,0.6 -3,0.6 0,15.9 0,15.9 2.8,0.5 c 1.5,0.3 3.9,0.3 5.5,0 l 2.7,-0.5 0,-13.5 c 0,-7.4 0.4,-13.2 0.9,-12.9 0.4,0.3 4.5,6.3 9,13.4 7.8,12.4 8.3,13 12,13.6 6.7,1 8.4,-0.3 17.8,-14.6 l 8.8,-13.3 0.3,13.6 0.3,13.7 2.7,0.5 c 1.5,0.3 3.9,0.3 5.5,0 l 2.7,-0.5 0,-15.3 c 0,-11.6 -0.4,-16 -1.5,-18.1 l -1.5,-2.9 -20.2,-0.5 -20.3,-0.5 0,-4.5 0,-4.5 17.5,-0.5 c 16.7,-0.5 17.5,-0.6 17.5,-2.5 0,-1.9 -0.8,-2 -17.7,-2.3 l -17.8,-0.2 0,-4 0,-4 19.3,0 c 14.9,0 19.8,-0.3 21.2,-1.4 1.6,-1.2 1.7,-1.6 0.6,-3 C 72.1,104.3 69.8,104 62,104 l -9.9,0 0,-15 0,-14.9 14.8,-0.3 14.7,-0.3 0,-2.5 c 0,-2.4 -0.3,-2.5 -7.3,-2.8 L 67,67.9 70,64.4 c 1.7,-1.9 3.4,-4.6 3.7,-6 C 74.6,55 73.6,49.3 71.6,46.3 69.8,43.6 61.7,39.5 55.9,38.5 l -3.8,-0.7 0,-15.4 0,-15.4 12.8,0 C 78,7 80.1,6.4 80.1,2.9 80.1,2 79.4,0.9 78.5,0.6 77.6,0.3 60.8,0 41.1,0 6.6,0 5.1,0.1 4.1,1.9 Z m 45.5,42.2 c 6.3,1.6 9,4.9 9,11.1 0,4.2 -0.4,5.3 -2.8,7.3 C 51,66.7 39.4,68.3 31,66 23.5,63.9 20,55.7 24,49.3 27.4,43.9 39.3,41.5 49.6,44.1 Z m 6.3,94.7 c -0.9,2.1 -14.4,21.2 -15,21.2 -0.7,0 -14.8,-20.4 -14.8,-21.5 0,-0.3 6.8,-0.5 15.1,-0.5 8.3,0 14.9,0.4 14.7,0.8 z" />
</svg>
